# xmcd CD database file
#
# Track frame offsets:
#	150
#	24958
#	37700
#	69798
#	83428
#	110843
#	145375
#	167323
#	189233
#	229083
#
# Disc length: 3310 seconds
#
# Revision: 1
# Processed by: cddbd v1.4PL0 Copyright (c) Steve Scherf et al.
# Submitted via: CDex 1.40Release
#
DISCID=690cec0a
DTITLE=Tyler Thompson Band - Fine Young Man
DYEAR=1998
DGENRE=Blues
TTITLE0=Last Train
TTITLE1=Riding It Out
TTITLE2=Fine Young Man
TTITLE3=Misled
TTITLE4=Endless Moment
TTITLE5=Ain't Gonna Worry
TTITLE6=Bad Winds
TTITLE7=McGregor
TTITLE8=Witch's Brew
TTITLE9=Claude's Theme
EXTD=YEAR: 1998 ID3G: 0
EXTT0=
EXTT1=
EXTT2=
EXTT3=
EXTT4=
EXTT5=
EXTT6=
EXTT7=
EXTT8=
EXTT9=
PLAYORDER=
